<svg xmlns="http://www.w3.org/2000/svg" xmlns:xlink="http://www.w3.org/1999/xlink" xmlns:s="https://github.com/nturley/netlistsvg" width="568" height="429.5">
  <style>svg {
    stroke:#000;
    fill:none;
  }
  text {
    fill:#000;
    stroke:none;
    font-size:10px;
    font-weight: bold;
    font-family: "Courier New", monospace;
  }
  .nodelabel {
    text-anchor: middle;
  }
  .inputPortLabel {
    text-anchor: end;
  }
  .splitjoinBody {
    fill:#000;
  }</style>
  <g s:type="generic" transform="translate(133,178.5)" s:width="30" s:height="40" id="cell_Controller">
    <text x="15" y="-4" class="nodelabel cell_Controller" s:attribute="ref">FSM_ShiftAdd_Multiplier</text>
    <rect width="30" height="100" s:generic="body" class="cell_Controller"/>
    <g transform="translate(0,10)" s:x="0" s:y="10" s:pid="in0" id="port_Controller~clk">
      <text x="-3" y="-4" class="inputPortLabel cell_Controller">clk</text>
    </g>
    <g transform="translate(0,30)" s:x="0" s:y="10" s:pid="in0" id="port_Controller~count">
      <text x="-3" y="-4" class="inputPortLabel cell_Controller">count</text>
    </g>
    <g transform="translate(0,50)" s:x="0" s:y="10" s:pid="in0" id="port_Controller~lsb">
      <text x="-3" y="-4" class="inputPortLabel cell_Controller">lsb</text>
    </g>
    <g transform="translate(0,70)" s:x="0" s:y="10" s:pid="in0" id="port_Controller~rst">
      <text x="-3" y="-4" class="inputPortLabel cell_Controller">rst</text>
    </g>
    <g transform="translate(0,90)" s:x="0" s:y="10" s:pid="in0" id="port_Controller~start">
      <text x="-3" y="-4" class="inputPortLabel cell_Controller">start</text>
    </g>
    <g transform="translate(30,10)" s:x="30" s:y="10" s:pid="out0" id="port_Controller~add">
      <text x="5" y="-4" style="fill:#000; stroke:none" class="cell_Controller">add</text>
    </g>
    <g transform="translate(30,30)" s:x="30" s:y="10" s:pid="out0" id="port_Controller~done">
      <text x="5" y="-4" style="fill:#000; stroke:none" class="cell_Controller">done</text>
    </g>
    <g transform="translate(30,50)" s:x="30" s:y="10" s:pid="out0" id="port_Controller~ld_count">
      <text x="5" y="-4" style="fill:#000; stroke:none" class="cell_Controller">ld_count</text>
    </g>
    <g transform="translate(30,70)" s:x="30" s:y="10" s:pid="out0" id="port_Controller~load">
      <text x="5" y="-4" style="fill:#000; stroke:none" class="cell_Controller">load</text>
    </g>
    <g transform="translate(30,90)" s:x="30" s:y="10" s:pid="out0" id="port_Controller~shift">
      <text x="5" y="-4" style="fill:#000; stroke:none" class="cell_Controller">shift</text>
    </g>
  </g>
  <g s:type="generic" transform="translate(484,22)" s:width="30" s:height="40" id="cell_Counter">
    <text x="15" y="-4" class="nodelabel cell_Counter" s:attribute="ref">Counter_ShiftAdd_Multiplier</text>
    <rect width="30" height="60" s:generic="body" class="cell_Counter"/>
    <g transform="translate(0,10)" s:x="0" s:y="10" s:pid="in0" id="port_Counter~clk">
      <text x="-3" y="-4" class="inputPortLabel cell_Counter">clk</text>
    </g>
    <g transform="translate(0,30)" s:x="0" s:y="10" s:pid="in0" id="port_Counter~ld_count">
      <text x="-3" y="-4" class="inputPortLabel cell_Counter">ld_count</text>
    </g>
    <g transform="translate(0,50)" s:x="0" s:y="10" s:pid="in0" id="port_Counter~rst">
      <text x="-3" y="-4" class="inputPortLabel cell_Counter">rst</text>
    </g>
    <g transform="translate(30,10)" s:x="30" s:y="10" s:pid="out0" id="port_Counter~count">
      <text x="5" y="-4" style="fill:#000; stroke:none" class="cell_Counter">count</text>
    </g>
  </g>
  <g s:type="generic" transform="translate(326,261)" s:width="30" s:height="40" id="cell_Datapath">
    <text x="15" y="-4" class="nodelabel cell_Datapath" s:attribute="ref">DataPath_ShiftAdd_Multiplier</text>
    <rect width="30" height="140" s:generic="body" class="cell_Datapath"/>
    <g transform="translate(0,10)" s:x="0" s:y="10" s:pid="in0" id="port_Datapath~add">
      <text x="-3" y="-4" class="inputPortLabel cell_Datapath">add</text>
    </g>
    <g transform="translate(0,30)" s:x="0" s:y="10" s:pid="in0" id="port_Datapath~clk">
      <text x="-3" y="-4" class="inputPortLabel cell_Datapath">clk</text>
    </g>
    <g transform="translate(0,50)" s:x="0" s:y="10" s:pid="in0" id="port_Datapath~load">
      <text x="-3" y="-4" class="inputPortLabel cell_Datapath">load</text>
    </g>
    <g transform="translate(0,70)" s:x="0" s:y="10" s:pid="in0" id="port_Datapath~multiplicand">
      <text x="-3" y="-4" class="inputPortLabel cell_Datapath">multiplicand</text>
    </g>
    <g transform="translate(0,90)" s:x="0" s:y="10" s:pid="in0" id="port_Datapath~multiplier">
      <text x="-3" y="-4" class="inputPortLabel cell_Datapath">multiplier</text>
    </g>
    <g transform="translate(0,110)" s:x="0" s:y="10" s:pid="in0" id="port_Datapath~rst">
      <text x="-3" y="-4" class="inputPortLabel cell_Datapath">rst</text>
    </g>
    <g transform="translate(0,130)" s:x="0" s:y="10" s:pid="in0" id="port_Datapath~shift">
      <text x="-3" y="-4" class="inputPortLabel cell_Datapath">shift</text>
    </g>
    <g transform="translate(30,10)" s:x="30" s:y="10" s:pid="out0" id="port_Datapath~lsb">
      <text x="5" y="-4" style="fill:#000; stroke:none" class="cell_Datapath">lsb</text>
    </g>
    <g transform="translate(30,30)" s:x="30" s:y="10" s:pid="out0" id="port_Datapath~product">
      <text x="5" y="-4" style="fill:#000; stroke:none" class="cell_Datapath">product</text>
    </g>
  </g>
  <g s:type="inputExt" transform="translate(12,31.5)" s:width="30" s:height="20" id="cell_clk">
    <text x="15" y="-4" class="nodelabel cell_clk" s:attribute="ref">clk</text>
    <s:alias val="$_inputExt_"/>
    <path d="M0,0 L0,20 L15,20 L30,10 L15,0 Z" class="cell_clk"/>
    <g s:x="28" s:y="10" s:pid="Y"/>
  </g>
  <g s:type="inputExt" transform="translate(12,96.5)" s:width="30" s:height="20" id="cell_rst">
    <text x="15" y="-4" class="nodelabel cell_rst" s:attribute="ref">rst</text>
    <s:alias val="$_inputExt_"/>
    <path d="M0,0 L0,20 L15,20 L30,10 L15,0 Z" class="cell_rst"/>
    <g s:x="28" s:y="10" s:pid="Y"/>
  </g>
  <g s:type="inputExt" transform="translate(133,386.5)" s:width="30" s:height="20" id="cell_multiplier">
    <text x="15" y="-4" class="nodelabel cell_multiplier" s:attribute="ref">multiplier</text>
    <s:alias val="$_inputExt_"/>
    <path d="M0,0 L0,20 L15,20 L30,10 L15,0 Z" class="cell_multiplier"/>
    <g s:x="28" s:y="10" s:pid="Y"/>
  </g>
  <g s:type="inputExt" transform="translate(133,321.5)" s:width="30" s:height="20" id="cell_multiplicand">
    <text x="15" y="-4" class="nodelabel cell_multiplicand" s:attribute="ref">multiplicand</text>
    <s:alias val="$_inputExt_"/>
    <path d="M0,0 L0,20 L15,20 L30,10 L15,0 Z" class="cell_multiplicand"/>
    <g s:x="28" s:y="10" s:pid="Y"/>
  </g>
  <g s:type="inputExt" transform="translate(12,161.5)" s:width="30" s:height="20" id="cell_start">
    <text x="15" y="-4" class="nodelabel cell_start" s:attribute="ref">start</text>
    <s:alias val="$_inputExt_"/>
    <path d="M0,0 L0,20 L15,20 L30,10 L15,0 Z" class="cell_start"/>
    <g s:x="28" s:y="10" s:pid="Y"/>
  </g>
  <g s:type="outputExt" transform="translate(484,281.5)" s:width="30" s:height="20" id="cell_product">
    <text x="15" y="-4" class="nodelabel cell_product" s:attribute="ref">product</text>
    <s:alias val="$_outputExt_"/>
    <path d="M30,0 L30,20 L15,20 L0,10 L15,0 Z" class="cell_product"/>
    <g s:x="0" s:y="10" s:pid="A"/>
  </g>
  <g s:type="outputExt" transform="translate(484,137.5)" s:width="30" s:height="20" id="cell_done">
    <text x="15" y="-4" class="nodelabel cell_done" s:attribute="ref">done</text>
    <s:alias val="$_outputExt_"/>
    <path d="M30,0 L30,20 L15,20 L0,10 L15,0 Z" class="cell_done"/>
    <g s:x="0" s:y="10" s:pid="A"/>
  </g>
  <line x1="40" x2="72" y1="41.5" y2="41.5" class="net_2"/>
  <line x1="72" x2="72" y1="41.5" y2="189" class="net_2"/>
  <circle cx="72" cy="41.5" r="2" style="fill:#000" class="net_2"/>
  <circle cx="72" cy="189" r="2" style="fill:#000" class="net_2"/>
  <line x1="72" x2="133" y1="189" y2="189" class="net_2"/>
  <line x1="40" x2="410" y1="41.5" y2="41.5" class="net_2"/>
  <line x1="410" x2="410" y1="41.5" y2="32.5" class="net_2"/>
  <line x1="410" x2="484" y1="32.5" y2="32.5" class="net_2"/>
  <line x1="40" x2="72" y1="41.5" y2="41.5" class="net_2"/>
  <line x1="72" x2="72" y1="41.5" y2="291.5" class="net_2"/>
  <line x1="72" x2="326" y1="291.5" y2="291.5" class="net_2"/>
  <line x1="515" x2="556" y1="32.5" y2="32.5" class="net_72,73,74,75,76"/>
  <line x1="556" x2="556" y1="32.5" y2="117.5" class="net_72,73,74,75,76"/>
  <line x1="556" x2="82" y1="117.5" y2="117.5" class="net_72,73,74,75,76"/>
  <line x1="82" x2="82" y1="117.5" y2="209" class="net_72,73,74,75,76"/>
  <line x1="82" x2="133" y1="209" y2="209" class="net_72,73,74,75,76"/>
  <line x1="357" x2="410" y1="271.5" y2="271.5" class="net_79"/>
  <line x1="410" x2="410" y1="271.5" y2="158.5" class="net_79"/>
  <line x1="410" x2="92" y1="158.5" y2="158.5" class="net_79"/>
  <line x1="92" x2="92" y1="158.5" y2="229" class="net_79"/>
  <line x1="92" x2="133" y1="229" y2="229" class="net_79"/>
  <line x1="40" x2="62" y1="106.5" y2="106.5" class="net_3"/>
  <line x1="62" x2="62" y1="106.5" y2="249" class="net_3"/>
  <circle cx="62" cy="106.5" r="2" style="fill:#000" class="net_3"/>
  <circle cx="62" cy="249" r="2" style="fill:#000" class="net_3"/>
  <line x1="62" x2="133" y1="249" y2="249" class="net_3"/>
  <line x1="40" x2="410" y1="106.5" y2="106.5" class="net_3"/>
  <line x1="410" x2="410" y1="106.5" y2="72.5" class="net_3"/>
  <line x1="410" x2="484" y1="72.5" y2="72.5" class="net_3"/>
  <line x1="40" x2="62" y1="106.5" y2="106.5" class="net_3"/>
  <line x1="62" x2="62" y1="106.5" y2="416.5" class="net_3"/>
  <line x1="62" x2="243" y1="416.5" y2="416.5" class="net_3"/>
  <line x1="243" x2="243" y1="416.5" y2="371.5" class="net_3"/>
  <line x1="243" x2="326" y1="371.5" y2="371.5" class="net_3"/>
  <line x1="40" x2="52" y1="171.5" y2="171.5" class="net_36"/>
  <line x1="52" x2="52" y1="171.5" y2="269" class="net_36"/>
  <line x1="52" x2="133" y1="269" y2="269" class="net_36"/>
  <line x1="164" x2="223" y1="229" y2="229" class="net_77"/>
  <line x1="223" x2="223" y1="229" y2="52.5" class="net_77"/>
  <line x1="223" x2="484" y1="52.5" y2="52.5" class="net_77"/>
  <line x1="164" x2="243" y1="189" y2="189" class="net_71"/>
  <line x1="243" x2="243" y1="189" y2="271.5" class="net_71"/>
  <line x1="243" x2="326" y1="271.5" y2="271.5" class="net_71"/>
  <line x1="164" x2="233" y1="249" y2="249" class="net_78"/>
  <line x1="233" x2="233" y1="249" y2="311.5" class="net_78"/>
  <line x1="233" x2="326" y1="311.5" y2="311.5" class="net_78"/>
  <line x1="161" x2="326" y1="331.5" y2="331.5" class="net_20,21,22,23,24,25,26,27,28,29,30,31,32,33,34,35"/>
  <line x1="161" x2="233" y1="396.5" y2="396.5" class="net_4,5,6,7,8,9,10,11,12,13,14,15,16,17,18,19"/>
  <line x1="233" x2="233" y1="396.5" y2="351.5" class="net_4,5,6,7,8,9,10,11,12,13,14,15,16,17,18,19"/>
  <line x1="233" x2="326" y1="351.5" y2="351.5" class="net_4,5,6,7,8,9,10,11,12,13,14,15,16,17,18,19"/>
  <line x1="164" x2="223" y1="269" y2="269" class="net_80"/>
  <line x1="223" x2="223" y1="269" y2="391.5" class="net_80"/>
  <line x1="223" x2="326" y1="391.5" y2="391.5" class="net_80"/>
  <line x1="357" x2="484" y1="291.5" y2="291.5" class="net_37,38,39,40,41,42,43,44,45,46,47,48,49,50,51,52,53,54,55,56,57,58,59,60,61,62,63,64,65,66,67,68,69"/>
  <line x1="164" x2="233" y1="209" y2="209" class="net_70"/>
  <line x1="233" x2="233" y1="209" y2="147.5" class="net_70"/>
  <line x1="233" x2="484" y1="147.5" y2="147.5" class="net_70"/>
</svg>
